<svg xmlns="http://www.w3.org/2000/svg" viewBox="0 0 432 96" role="img" aria-labelledby="title desc">
  <title id="title">SlopFactory</title>
  <desc id="desc">SlopFactory wordmark with S-shaped software production line symbol</desc>
  <rect x="8" y="8" width="80" height="80" rx="16" fill="#11110f"/>
  <path d="M23 24h44v14H40c-3 0-4 2-4 4s1 4 4 4h19c10 0 17 6 17 15s-7 14-17 14H23V61h34c3 0 4-1 4-4s-1-4-4-4H39c-10 0-17-6-17-15 0-5 2-10 5-14h-4Z" fill="#efff3c"/>
  <circle cx="37" cy="68" r="3.4" fill="#11110f"/>
  <circle cx="48" cy="68" r="3.4" fill="#11110f"/>
  <circle cx="59" cy="68" r="3.4" fill="#11110f"/>
  <rect x="67" y="17" width="12" height="12" rx="2.5" fill="#ff5b35"/>
  <text x="108" y="63" fill="#11110f" font-family="Manrope, Arial, sans-serif" font-size="48" font-weight="800" letter-spacing="-3">slopfactory</text>
</svg>
